# xmcd
#
# Track frame offsets: 
#        150
#        15498
#        30873
#        46365
#        62060
#        80813
#        98088
#        112898
#        133753
#        150223
#        168468
#
# Disc length: 2455 seconds
#
# Revision: 3
# Processed by: cddbd v1.5.2PL0 Copyright (c) Steve Scherf et al.
# Submitted via: ExactAudioCopy v0.95b4
#
DISCID=7a09950b
DTITLE=Travis Tritt - The Restless Kind
DYEAR=1996
DGENRE=Country
TTITLE0=Restless Kind
TTITLE1=Still In Love With You
TTITLE2=More Than You'll Ever Know
TTITLE3=Draggin' My Heart Around
TTITLE4=Helping Me Get Over You (Featuring Lari White)
TTITLE5=Back Up Against The Wall
TTITLE6=Double Trouble(Featuring Marty Stuart)
TTITLE7=Did You Fall Far Enough
TTITLE8=She's Going Home With Me
TTITLE9=Sack Full Of Stones
TTITLE10=Where Corn Don't Grow
EXTD=
EXTT0=
EXTT1=
EXTT2=
EXTT3=
EXTT4=
EXTT5=
EXTT6=
EXTT7=
EXTT8=
EXTT9=
EXTT10=
PLAYORDER=
